# AST/ASF file generated using VICON BodyLanguage
# -----------------------------------------------
:version 1.10
:name VICON
:units
  mass 1.0
  length 0.45
  angle deg
:documentation
   .ast/.asf automatically generated from VICON data using
   VICON BodyBuilder and BodyLanguage model FoxedUp or BRILLIANT.MOD
:root
   order TX TY TZ RX RY RZ
   axis XYZ
   position 0 0 0  
   orientation 0 0 0 
:bonedata
  begin
     id 1 
     name lhipjoint
     direction 0.440178 -0.822639 0.359871 
     length 2.53113 
     axis 0 0 0  XYZ
  end
  begin
     id 2 
     name lfemur
     direction 0.34202 -0.939693 0  
     length 7.88132  
     axis 0 0 20  XYZ
    dof rx ry rz
    limits (-160.0 20.0)
           (-70.0 70.0)
           (-60.0 70.0)
  end
  begin
     id 3 
     name ltibia
     direction 0.34202 -0.939693 0   
     length 8.43783   
     axis 0 0 20   XYZ
    dof rx
    limits (-10.0 170.0)
  end
  begin
     id 4 
     name lfoot
     direction 0.0886351 -0.243523 0.965837   
     length 2.63414   
     axis -90 7.62852e-016 20   XYZ
    dof rx rz
    limits (-45.0 90.0)
           (-70.0 20.0)
  end
  begin
     id 5 
     name ltoes
     direction 1.53703e-011 -4.21717e-011 1   
     length 1.31427   
     axis -90 7.62852e-016 20   XYZ
    dof rx
    limits (-90.0 20.0)
  end
  begin
     id 6 
     name rhipjoint
     direction -0.399779 -0.839773 0.367367   
     length 2.47948  
     axis 0 0 0  XYZ 
  end
  begin
     id 7 
     name rfemur
     direction -0.34202 -0.939693 0   
     length 7.74806   
     axis 0 0 -20   XYZ
    dof rx ry rz
    limits (-160.0 20.0)
           (-70.0 70.0)
           (-70.0 60.0)
  end
  begin
     id 8 
     name rtibia
     direction -0.34202 -0.939693 0   
     length 8.74432   
     axis 0 0 -20   XYZ
    dof rx
    limits (-10.0 170.0)
 end
 begin
     id 9 
     name rfoot
     direction -0.108514 -0.298139 0.948334   
     length 2.66102  
     axis -90 -7.62852e-016 -20   XYZ
    dof rx rz
    limits (-45.0 90.0)
           (-20.0 70.0)
  end
  begin
     id 10 
     name rtoes
     direction -1.53392e-011 -4.22077e-011 1   
     length 1.31983   
     axis -90 -7.62852e-016 -20   XYZ
    dof rx
    limits (-90.0 20.0)
  end
  begin
     id 11 
     name lowerback
     direction 0.0113257 0.999866 0.0118602   
     length 2.58694   
     axis 0 0 0   XYZ
    dof rx ry rz
    limits (-20.0 45.0)
           (-30.0 30.0)
           (-30.0 30.0)
  end
  begin
     id 12 
     name upperback
     direction -0.0164747 0.995193 -0.0965375   
     length 2.52368   
     axis 0 0 0   XYZ
    dof rx ry rz
    limits (-20.0 45.0)
           (-30.0 30.0)
           (-30.0 30.0)
  end
  begin
     id 13 
     name thorax
     direction -0.0194301 0.99433 -0.104552   
     length 2.56099   
     axis 0 0 0   XYZ
    dof rx ry rz
    limits (-20.0 45.0)
           (-30.0 30.0)
           (-30.0 30.0)
  end
  begin
     id 14 
     name lowerneck
     direction 0.0148543 0.995587 -0.092657   
     length 1.71582   
     axis 0 0 0   XYZ
    dof rx ry rz
    limits (-20.0 45.0)
           (-30.0 30.0)
           (-30.0 30.0)
  end
  begin
     id 15 
     name upperneck
     direction -0.0135467 0.993656 -0.111639   
     length 1.68937   
     axis 0 0 0   XYZ
    dof rx ry rz
    limits (-20.0 45.0)
           (-30.0 30.0)
           (-30.0 30.0)
  end
  begin
     id 16
     name head
     direction -0.00615349 0.999547 -0.029448  
     length 1.7462  
     axis 0 0 0   XYZ
    dof rx ry rz
    limits (-20.0 45.0)
           (-30.0 30.0)
           (-30.0 30.0)
  end
  begin
     id 17 
     name lclavicle
     direction 0.988267 0.149885 0.0293713  
     length 4.47222  
     axis 0 0 0   XYZ
    dof ry rz
    limits (-20.0 10.0)
           (0.0 20.0)
  end
  begin
     id 18 
     name lhumerus
     direction 1 -4.48986e-011 -1.14833e-027   
     length 5.37148   
     axis 180 -30 -90   XYZ
    dof rx ry rz
    limits (-60.0 90.0)
           (-90.0 90.0)
           (-90.0 90.0)
  end
  begin
     id 19
     name lradius
     direction 0.999998 0.00170963 -0.000987055   
     length 3.94212   
     axis 180 -30 -90   XYZ
    dof rx
    limits (-10.0 170.0)
  end
  begin
     id 20
     name lwrist
     direction 0.999998 7.53149e-005 -0.00194706   
     length 1.97106   
     axis 4.65056e-015 90 90   XYZ
    dof ry
    limits (-180.0 0.0)
 end
  begin
     id 21 
     name lhand
     direction 1 -4.48973e-011 -1.31746e-026   
     length 1.17917   
     axis 8.4065e-015 90 90   XYZ
    dof rx rz
    limits (-90.0 90.0)
           (-45.0 45.0)
  end
  begin
     id 22 
     name lfingers
     direction 1 -4.49107e-011 -2.63492e-026   
     length 0.950679   
     axis 1.6813e-014 90 90   XYZ
    dof rx
    limits (0.0 90.0)
  end
  begin
     id 23
     name lthumb
     direction 0.707107 -6.35048e-011 0.707107   
     length 1.36499   
     axis -90 45 2.85299e-015   XYZ
    dof rx rz
    limits (-45.0 45.0)
           (-45.0 45.0)
  end
  begin
     id 24 
     name rclavicle
     direction -0.996699 0.0642895 -0.0495725   
     length 4.62611  
     axis 0 0 0   XYZ 
    dof ry rz
    limits (-10.0 20.0)
           (-20.0 0.0)
  end
  begin
     id 25 
     name rhumerus
     direction -1 -4.48919e-011 -2.41059e-027  
     length 5.4981   
     axis 180 30 90   XYZ
    dof rx ry rz
    limits (-90.0 60.0)
           (-90.0 90.0)
           (-90.0 90.0)
  end
  begin
     id 26 
     name rradius
     direction -0.999999 0.00118101 -0.000681858   
     length 3.48381   
     axis 180 30 90   XYZ
    dof rx
    limits (-10.0 170.0)
  end
  begin
     id 27 
     name rwrist
     direction -0.999999 0.000321823 -0.00132288   
     length 1.7419   
     axis 4.65056e-015 -90 -90   XYZ
    dof ry
    limits (-180.0 0.0)
  end
  begin
     id 28
     name rhand
     direction -1 -4.49022e-011 -1.31746e-026   
     length 1.34932   
     axis 8.4065e-015 -90 -90   XYZ
    dof rx rz
    limits (-90.0 90.0)
           (-45.0 45.0)
  end
  begin
     id 29
     name rfingers
     direction -1 -4.49178e-011 -2.63492e-026   
     length 1.08785   
     axis 1.6813e-014 -90 -90   XYZ
    dof rx
    limits (0.0 90.0)
  end
  begin
     id 30
     name rthumb
     direction -0.707107 -6.34713e-011 0.707107   
     length 1.56195   
     axis -90 -45 -2.85299e-015   XYZ
    dof rx rz
    limits (-45.0 45.0)
           (-45.0 45.0)
  end
:hierarchy
  begin
    root lhipjoint rhipjoint lowerback
    lhipjoint lfemur
    lfemur ltibia
    ltibia lfoot
    lfoot ltoes
    rhipjoint rfemur
    rfemur rtibia
    rtibia rfoot
    rfoot rtoes
    lowerback upperback
    upperback thorax
    thorax lowerneck lclavicle rclavicle
    lowerneck upperneck
    upperneck head
    lclavicle lhumerus
    lhumerus lradius
    lradius lwrist
    lwrist lhand lthumb
    lhand lfingers
    rclavicle rhumerus
    rhumerus rradius
    rradius rwrist
    rwrist rhand rthumb
    rhand rfingers
  end

#!OML:ASF X:\für Bonn\!DataBase\2005_08_10_Bjorn_Final\c3d\bjorn.ASF
:FULLY-SPECIFIED
:DEGREES
16
root 1.01041 19.215 2.53537 -171.013 1.70072 -178.325
lowerback -6.35639 1.14643 2.79203
upperback 4.64724 1.39709 -0.374022
thorax 8.55487 0.906976 -1.76471
lowerneck -12.7458 -3.41836 0.058148
upperneck 13.7722 -4.93383 0.82864
head 6.29826 -2.37173 -0.20004
rclavicle -7.90169e-015 2.28602e-015
rhumerus 72.5289 -0.111854 -71.3712
rradius 9.41998
rwrist 47.3876
rhand -9.2585 11.194
rfingers 7.12502
rthumb 16.6976 -18.1078
lclavicle -7.90169e-015 2.28602e-015
lhumerus 77.8409 -7.21539 64.8681
lradius 10.146
lwrist -49.7249
lhand -14.7846 -7.31836
lfingers 7.12502
lthumb 11.3724 22.3533
rfemur -19.8087 -15.8609 19.9605
rtibia 30.9515
rfoot -15.7496 18.6465
rtoes -14.7443
lfemur -18.6758 15.5571 -17.5774
ltibia 31.5734
lfoot -18.5261 -19.7142
ltoes -11.9897
17
root 1.0145 19.2115 2.53414 -171.287 1.54917 -178.316
lowerback -6.05658 1.11441 2.8309
upperback 4.73053 1.36662 -0.34796
thorax 8.46765 0.897877 -1.76699
lowerneck -12.7688 -3.41914 0.117279
upperneck 13.7298 -4.92154 0.702562
head 6.28366 -2.37187 -0.248083
rclavicle -4.84538e-015 1.88845e-015
rhumerus 72.4142 -0.0645587 -71.3731
rradius 9.39348
rwrist 47.3035
rhand -9.27224 11.1815
rfingers 7.12502
rthumb 16.6844 -18.1215
lclavicle -4.84538e-015 1.88845e-015
lhumerus 77.9135 -7.25343 65.3221
lradius 10.062
lwrist -49.63
lhand -14.8709 -7.34294
lfingers 7.12502
lthumb 11.2892 22.3332
rfemur -19.4133 -15.5051 19.875
rtibia 30.931
rfoot -15.898 18.2064
rtoes -14.6316
lfemur -18.4194 15.0626 -17.4643
ltibia 31.6253
lfoot -18.6882 -19.2406
ltoes -12.1425
18
root 1.01663 19.206 2.53511 -171.72 1.44735 -178.305
lowerback -5.53648 1.09364 2.9036
upperback 4.84065 1.36174 -0.336186
thorax 8.28296 0.905395 -1.80315
lowerneck -12.846 -3.42033 0.129362
upperneck 13.7332 -4.91178 0.632897
head 6.29567 -2.37059 -0.272642
rclavicle 1.53313e-014 -8.24956e-015
rhumerus 72.2639 -0.0374061 -71.3779
rradius 9.39324
rwrist 47.1508
rhand -9.25063 11.14
rfingers 7.12502
rthumb 16.7052 -18.1612
lclavicle 1.53313e-014 -8.24956e-015
lhumerus 77.8985 -7.30217 65.9429
lradius 10.0736
lwrist -49.5584
lhand -14.9829 -7.38768
lfingers 7.12502
lthumb 11.1812 22.2944
rfemur -18.8572 -15.2599 19.7496
rtibia 30.9157
rfoot -16.0648 17.9
rtoes -14.6993
lfemur -17.9746 14.4258 -17.316
ltibia 31.6673
lfoot -18.8913 -18.5769
ltoes -12.3622
19
root 1.01862 19.1989 2.53485 -172.218 1.3601 -178.305
lowerback -4.92573 1.06255 2.9669
upperback 4.95187 1.35015 -0.326789
thorax 8.04579 0.909492 -1.8389
lowerneck -12.9343 -3.40888 0.163962
upperneck 13.7638 -4.88644 0.536243
head 6.31691 -2.36293 -0.308572
rclavicle -8.92046e-015 2.98177e-016
rhumerus 72.0803 0.0499612 -71.4154
rradius 9.43811
rwrist 46.9565
rhand -9.22698 11.077
rfingers 7.12502
rthumb 16.7279 -18.2223
lclavicle -8.92046e-015 2.98177e-016
lhumerus 77.8533 -7.38782 66.2012
lradius 10.1219
lwrist -49.0525
lhand -15.1965 -7.40678
lfingers 7.12502
lthumb 10.9752 22.2863
rfemur -18.2298 -14.9644 19.5862
rtibia 30.9223
rfoot -16.2814 17.5853
rtoes -14.7842
lfemur -17.4339 13.8443 -17.1743
ltibia 31.6836
lfoot -19.0259 -18.0298
ltoes -12.2699
20
root 1.01954 19.1886 2.53367 -172.748 1.27613 -178.274
lowerback -4.25033 1.0465 3.0545
upperback 5.03753 1.35837 -0.286953
thorax 7.74466 0.922594 -1.85548
lowerneck -13.0095 -3.41573 0.175344
upperneck 13.8344 -4.87764 0.398584
head 6.34819 -2.36837 -0.35564
rclavicle 9.88954e-015 2.18663e-015
rhumerus 71.8362 0.129374 -71.3853
rradius 9.50862
rwrist 46.6785
rhand -9.13896 11.0358
rfingers 7.12502
rthumb 16.8127 -18.2563
lclavicle 9.88954e-015 2.18663e-015
lhumerus 77.7622 -7.52015 66.4797
lradius 10.1467
lwrist -48.5779
lhand -15.5636 -7.48161
lfingers 7.12502
lthumb 10.6211 22.23
rfemur -17.5874 -14.7748 19.4583
rtibia 30.9577
rfoot -16.4837 17.3936
rtoes -14.7685
lfemur -16.7794 13.0577 -17.0059
ltibia 31.6764
lfoot -19.3921 -17.1636
ltoes -12.7146
21
root 1.02077 19.1776 2.53111 -173.254 1.1765 -178.28
lowerback -3.60495 1.00911 3.11344
upperback 5.11903 1.34191 -0.269217
thorax 7.45557 0.922586 -1.8817
lowerneck -13.088 -3.40121 0.202777
upperneck 13.8978 -4.8469 0.288239
head 6.37816 -2.36024 -0.39464
rclavicle -8.49804e-015 -1.08835e-014
rhumerus 71.5831 0.258959 -71.3998
rradius 9.63799
rwrist 46.3111
rhand -9.01292 10.9735
rfingers 7.12502
rthumb 16.934 -18.3083
lclavicle -8.49804e-015 -1.08835e-014
lhumerus 77.679 -7.70273 66.1313
lradius 10.234
lwrist -47.5559
lhand -16.0081 -7.50152
lfingers 7.12502
lthumb 10.1923 22.2316
rfemur -16.9777 -14.535 19.3003
rtibia 31.0182
rfoot -16.6955 17.1232
rtoes -14.7279
lfemur -16.1558 12.306 -16.8997
ltibia 31.6562
lfoot -19.6355 -16.3948
ltoes -12.8381
22
root 1.02143 19.1677 2.52546 -173.676 1.10964 -178.318
lowerback -3.0802 0.999757 3.17034
upperback 5.19831 1.36085 -0.291494
thorax 7.23822 0.941182 -1.94311
lowerneck -13.207 -3.39039 0.310186
upperneck 13.9526 -4.83119 0.151712
head 6.40964 -2.35676 -0.45688
rclavicle -8.44835e-016 -7.25564e-015
rhumerus 71.3506 0.325086 -71.4402
rradius 9.7811
rwrist 45.8826
rhand -8.8858 10.8748
rfingers 7.12502
rthumb 17.0564 -18.3964
lclavicle -8.44835e-016 -7.25564e-015
lhumerus 77.6539 -7.92114 65.6888
lradius 10.3112
lwrist -46.6175
lhand -16.4741 -7.55654
lfingers 7.12502
lthumb 9.74272 22.1981
rfemur -16.4851 -14.3854 19.1381
rtibia 31.1012
rfoot -16.8766 16.9345
rtoes -14.9356
lfemur -15.6142 11.588 -16.8719
ltibia 31.6344
lfoot -19.8691 -15.6335
ltoes -12.9238
23
root 1.02096 19.1582 2.51855 -173.974 1.02488 -178.309
lowerback -2.69711 0.990568 3.2799
upperback 5.25297 1.36689 -0.287315
thorax 7.07744 0.954039 -2.00556
lowerneck -13.2845 -3.38441 0.343956
upperneck 13.9811 -4.81328 0.0545438
head 6.42859 -2.35327 -0.493406
rclavicle -8.38623e-015 -1.39149e-015
rhumerus 71.1797 0.403481 -71.4538
rradius 9.87112
rwrist 45.4254
rhand -8.78133 10.7998
rfingers 7.12502
rthumb 17.1569 -18.4628
lclavicle -8.38623e-015 -1.39149e-015
lhumerus 77.5966 -8.13273 65.1851
lradius 10.4425
lwrist -45.6877
lhand -16.858 -7.56685
lfingers 7.12502
lthumb 9.37232 22.2048
rfemur -16.1371 -14.3071 19.0629
rtibia 31.1913
rfoot -17.0526 16.8146
rtoes -15.0843
lfemur -15.2239 10.8011 -16.8334
ltibia 31.6253
lfoot -20.1105 -14.8076
ltoes -12.9584
24
root 1.02142 19.151 2.51096 -174.145 0.954137 -178.358
lowerback -2.51679 1.00173 3.33855
upperback 5.34869 1.398 -0.310086
thorax 7.0795 0.98014 -2.06106
lowerneck -13.4635 -3.39121 0.381799
upperneck 13.9675 -4.8125 -0.0172945
head 6.45191 -2.35376 -0.525418
rclavicle -3.76448e-015 -1.11319e-014
rhumerus 71.141 0.39815 -71.4631
rradius 9.93231
rwrist 44.9993
rhand -8.75652 10.7925
rfingers 7.12502
rthumb 17.1808 -18.4679
lclavicle -3.76448e-015 -1.11319e-014
lhumerus 77.599 -8.26969 65.0468
lradius 10.5977
lwrist -45.2331
lhand -17.1867 -7.71925
lfingers 7.12502
lthumb 9.05517 22.0664
rfemur -15.9452 -14.1511 18.9702
rtibia 31.292
rfoot -17.2652 16.5593
rtoes -15.4161
lfemur -14.9887 10.0634 -16.891
ltibia 31.6314
lfoot -20.2553 -14.0801
ltoes -12.6354
25
root 1.02144 19.1451 2.50264 -174.261 0.879468 -178.371
lowerback -2.40875 1.02644 3.4661
upperback 5.43452 1.43958 -0.343177
thorax 7.11641 1.01514 -2.16392
lowerneck -13.5459 -3.40223 0.435589
upperneck 13.8763 -4.82271 -0.064294
head 6.43414 -2.35759 -0.550046
rclavicle -6.96989e-015 -2.78299e-015
rhumerus 71.1462 0.343832 -71.4814
rradius 9.89828
rwrist 44.5989
rhand -8.85487 10.75
rfingers 7.12502
rthumb 17.0861 -18.5186
lclavicle -6.96989e-015 -2.78299e-015
lhumerus 77.5675 -8.40422 65.1408
lradius 10.7747
lwrist -45.1628
lhand -17.3378 -7.90554
lfingers 7.12502
lthumb 8.90939 21.8864
rfemur -15.8139 -14.0068 18.9317
rtibia 31.3929
rfoot -17.4377 16.3353
rtoes -15.6646
lfemur -14.831 9.29659 -16.9314
ltibia 31.6648
lfoot -20.4314 -13.2887
ltoes -12.4878
26
root 1.02077 19.1393 2.49578 -174.337 0.794501 -178.406
lowerback -2.34909 1.05072 3.58593
upperback 5.52961 1.48024 -0.389453
thorax 7.19184 1.05062 -2.27529
lowerneck -13.6477 -3.41747 0.487921
upperneck 13.7814 -4.83827 -0.109531
head 6.41854 -2.36371 -0.57469
rclavicle 9.82742e-015 -2.38542e-015
rhumerus 71.1865 0.279744 -71.5084
rradius 9.86808
rwrist 44.2381
rhand -9.00906 10.7276
rfingers 7.12502
rthumb 16.9377 -18.5538
lclavicle 9.82742e-015 -2.38542e-015
lhumerus 77.5209 -8.52002 65.3021
lradius 11.0142
lwrist -45.1751
lhand -17.3489 -8.18362
lfingers 7.12502
lthumb 8.89871 21.6087
rfemur -15.745 -13.8457 18.8837
rtibia 31.5088
rfoot -17.5973 16.0829
rtoes -15.912
lfemur -14.7379 8.56109 -17.0061
ltibia 31.718
lfoot -20.5868 -12.5612
ltoes -12.1345
27
root 1.02013 19.1335 2.48879 -174.377 0.739474 -178.438
lowerback -2.33042 1.08063 3.68496
upperback 5.6241 1.52668 -0.422441
thorax 7.29019 1.08761 -2.35973
lowerneck -13.6967 -3.42444 0.557389
upperneck 13.6151 -4.84251 -0.161396
head 6.37057 -2.36442 -0.60094
rclavicle -1.52816e-015 2.03754e-015
rhumerus 71.2388 0.235593 -71.5243
rradius 9.84693
rwrist 43.9703
rhand -9.24338 10.7194
rfingers 7.12502
rthumb 16.7122 -18.5813
lclavicle -1.52816e-015 2.03754e-015
lhumerus 77.4314 -8.57319 65.7757
lradius 11.2652
lwrist -45.5396
lhand -17.1706 -8.50424
lfingers 7.12502
lthumb 9.0707 21.2807
rfemur -15.7337 -13.6598 18.8469
rtibia 31.6375
rfoot -17.7488 15.832
rtoes -16.079
lfemur -14.7042 7.9 -17.0929
ltibia 31.8079
lfoot -20.699 -11.8477
ltoes -11.904
28
root 1.01943 19.1274 2.48451 -174.378 0.662964 -178.476
lowerback -2.30961 1.11251 3.81578
upperback 5.69566 1.57403 -0.485735
thorax 7.3653 1.12643 -2.49423
lowerneck -13.7341 -3.43056 0.640558
upperneck 13.4449 -4.85739 -0.160804
head 6.32043 -2.36561 -0.613443
rclavicle 2.13694e-014 7.40473e-015
rhumerus 71.2743 0.174091 -71.5778
rradius 9.84305
rwrist 43.7065
rhand -9.46921 10.65
rfingers 7.12502
rthumb 16.4947 -18.6688
lclavicle 2.13694e-014 7.40473e-015
lhumerus 77.4177 -8.70223 65.9029
lradius 11.4445
lwrist -45.6189
lhand -16.9935 -8.79365
lfingers 7.12502
lthumb 9.24159 20.9838
rfemur -15.7922 -13.4317 18.8218
rtibia 31.8033
rfoot -17.9252 15.5166
rtoes -16.2671
lfemur -14.7534 7.22068 -17.1907
ltibia 31.9373
lfoot -20.6892 -11.1632
ltoes -11.5545
